<svg xmlns="http://www.w3.org/2000/svg" xml:space="preserve" width="445.198" height="58.074" style="shape-rendering:geometricPrecision;text-rendering:geometricPrecision;image-rendering:optimizeQuality;fill-rule:evenodd;clip-rule:evenodd" viewBox="0 0 12602.28 1643.9" xmlns:xlink="http://www.w3.org/1999/xlink"><defs><clipPath id="id0" style="clip-rule:nonzero"><path d="M2464.5 1643.9q-188.46 0-364.41-51.09c-117.31-34.06-211.54-78.34-282.68-132.83l124.88-277c68.12 49.95 149.1 90.06 242.95 120.34 93.85 30.27 187.69 45.41 281.54 45.41 104.44 0 181.64-15.51 231.6-46.54 49.94-31.04 74.92-72.28 74.92-123.74q0-56.76-44.28-94.23c-29.51-24.97-67.35-45.03-113.52-60.16-46.17-15.14-108.6-31.8-187.31-49.95-121.09-28.76-220.23-57.53-297.43-86.29s-143.43-74.92-198.68-138.5c-55.25-63.57-82.87-148.34-82.87-254.3 0-92.33 24.98-175.96 74.93-250.89 49.94-74.92 125.25-134.33 225.9-178.23C2250.7 22 2373.69.05 2519 .05c101.41 0 200.56 12.11 297.44 36.33s181.64 59.04 254.3 104.44l-113.52 279.27c-146.83-83.25-293.66-124.88-440.48-124.88q-154.395 0-228.18 49.95c-49.19 33.29-73.79 77.19-73.79 131.69 0 54.49 28.37 94.97 85.14 121.46 56.76 26.49 143.42 52.61 259.97 78.34 121.1 28.76 220.23 57.52 297.44 86.28 77.19 28.76 143.42 74.17 198.67 136.23s82.87 146.07 82.87 252.03c0 90.82-25.36 173.69-76.06 248.62q-76.065 112.38-228.18 178.23c-101.41 43.9-224.78 65.85-370.09 65.85z"/></clipPath><clipPath id="id1" style="clip-rule:nonzero"><path d="M3697.37 327.01h-508.59V27.3h1385v299.71h-508.59v1289.64h-367.82z"/></clipPath><clipPath id="id2" style="clip-rule:nonzero"><path d="M6001.93 1321.48v295.17H4771.31V27.3h1201.1v295.17h-835.54v345.11h737.91v286.09h-737.91v367.81z"/></clipPath><clipPath id="id3" style="clip-rule:nonzero"><path d="M6587.72 1643.9c-107.47 0-206.24-20.06-296.3-60.17s-163.85-97.25-221.38-171.43l204.35-245.22c86.29 116.55 184.67 174.83 295.17 174.83 149.85 0 224.78-87.78 224.78-263.37V322.47H6235.8V27.3h924.09v1030.81c0 195.26-48.43 341.71-145.31 439.33-96.88 97.64-239.16 146.46-426.85 146.46z"/></clipPath><clipPath id="id4" style="clip-rule:nonzero"><path d="M8535.81 1276.08h-737.92l-140.76 340.57h-376.91L7988.62 27.3h363.28l710.67 1589.35h-385.99l-140.76-340.57zm-115.8-279.27-252.02-608.49-252.02 608.49z"/></clipPath><clipPath id="id5" style="clip-rule:nonzero"><path d="M9998.01 1643.9c-164.99 0-313.71-35.57-446.15-106.72-132.45-71.14-236.13-169.15-311.07-294.02-74.92-124.88-112.38-265.28-112.38-421.18s37.46-296.3 112.38-421.18c74.93-124.88 178.62-222.89 311.07-294.02C9684.3 35.63 9833.02.06 9998.01.06s313.32 35.57 445.02 106.72c131.69 71.14 235.37 169.15 311.06 294.02 75.68 124.88 113.52 265.28 113.52 421.18s-37.84 296.3-113.52 421.18-179.37 222.89-311.06 294.02c-131.69 71.15-280.03 106.72-445.02 106.72m0-313.34c93.85 0 178.61-21.57 254.29-64.71s135.1-103.31 178.24-180.5c43.14-77.2 64.71-165 64.71-263.38 0-98.39-21.57-186.18-64.71-263.38-43.14-77.19-102.56-137.36-178.24-180.5s-160.44-64.71-254.29-64.71-178.62 21.57-254.3 64.71-135.09 103.31-178.23 180.5c-43.14 77.2-64.71 165-64.71 263.38 0 98.39 21.57 186.18 64.71 263.38 43.14 77.19 102.55 137.36 178.23 180.5s160.45 64.71 254.3 64.71"/></clipPath><clipPath id="id6" style="clip-rule:nonzero"><path d="M12602.28 27.3v1589.35h-301.98l-792.41-964.97v964.97h-363.28V27.3h304.25l790.13 964.96V27.3z"/></clipPath><linearGradient id="id7" gradientUnits="objectBoundingBox" x1="0%" y1="50%" x2="100%" y2="50%"><stop offset="0" style="stop-opacity:1;stop-color:#49ffc6"/><stop offset="1" style="stop-opacity:1;stop-color:#2d3dff"/></linearGradient><linearGradient id="id8" gradientUnits="objectBoundingBox" xlink:href="#id7" x1="0%" y1="50%" x2="100%" y2="50%"/><linearGradient id="id9" gradientUnits="objectBoundingBox" x1="111.623%" y1="10.742%" x2="0%" y2="98.082%"><stop offset="0" style="stop-opacity:1;stop-color:#ffff2a"/><stop offset="1" style="stop-opacity:1;stop-color:#00e2d6"/></linearGradient><linearGradient id="id10" gradientUnits="objectBoundingBox" xlink:href="#id7" x1="87.581%" y1="18.879%" x2="9.137%" y2="87.261%"/><linearGradient id="id11" gradientUnits="objectBoundingBox" xlink:href="#id7" x1="99.534%" y1="120.219%" x2="0%" y2="0%"/><linearGradient id="id12" gradientUnits="objectBoundingBox" xlink:href="#id9" x1="111.623%" y1="10.742%" x2="0%" y2="98.082%"/><style>.fil0{fill:url(#id7)}.fil0,.fil1,.fil5{fill-rule:nonzero}.fil1{fill:url(#id8)}.fil5{fill:url(#id9)}.fil2,.fil3,.fil6{fill-rule:nonzero}.fil6{fill:url(#id10)}.fil3{fill:url(#id11)}.fil2{fill:url(#id12)}</style></defs><g id="Camada_x0020_1"><path class="fil0" d="M1320.32 1056.26c-88.05 187.8-278.77 317.9-499.86 317.9-134.63 0-257.74-48.19-353.54-128.06 129.39-8.17 350.18-50.67 602.22-220.21 129.83-87.32 230.29-211.16 284.18-346.38.72-1.8 1.42-3.59 2.12-5.39 107.24-276.5-57.85-585.16-346.65-652.6C937.65 4.9 862.98-2.46 786.12.79 363.05 18.58 19.13 361.97.85 785.01c-20.33 470.31 354.83 857.88 820.63 857.88 353.84 0 655.39-223.72 771.05-537.55l-272.21-49.06zM292.85 984.27c-15.62-51.11-24.09-105.44-24.09-161.8 0-283.3 213.64-516.95 488.76-548.06 4.53-.59 9.2-1.03 13.73-1.47 3.95-.29 7.75-.58 11.54-.88 3.71-.25 7.31-.46 10.9-.62 50.71-2.08 175.2.44 244.17 67.61 18.68 19.86 36.04 46.65 45.9 82.7 45.56 166.32-110.55 589.81-790.91 562.51z"/><path class="fil1" d="M1320.32 1056.26c-88.05 187.8-278.77 317.9-499.86 317.9-134.63 0-257.74-48.19-353.54-128.06 129.39-8.17 350.18-50.67 602.22-220.21 129.83-87.32 230.29-211.16 284.18-346.38.73-1.75 1.46-3.65 2.19-5.4 107.18-276.44-57.98-585.15-346.68-652.62C937.72 4.84 862.95-2.45 786.15.76 363.1 18.57 19.2 361.9.79 784.95c-20.31 470.36 354.86 857.94 820.68 857.94 353.84 0 655.39-223.72 771.05-537.55l-272.21-49.06zM292.71 983.98c-15.48-50.97-23.95-105.29-23.95-161.51 0-283.3 213.64-516.95 488.76-548.06 4.53-.59 9.2-1.03 13.73-1.47 3.95-.29 7.75-.58 11.54-.88 3.65-.29 7.3-.44 10.94-.58 50.67-2.04 175.09.44 244.17 67.61 18.69 19.87 36.07 46.59 45.85 82.66 45.56 166.32-110.55 589.81-790.91 562.51 0 0 0-.14-.14-.29z"/><path class="fil2" d="M1642.03 1135.12c-3.36 29.94-24.97 35.34-24.97 35.34s14.6 12.7 8.61 38.55c-5.69 24.83-49.35 30.08-77.98 34.61-13.58 2.19-24.38 8.32-28.03 10.52l-.15.14c-.88.59-1.32.88-1.32.88-9.49 15.49-19.71 31.11-30.52 47.02 0 0-.29.15-.29.3-149.24 206.2-391.95 340.4-665.9 340.4-212.47 0-406.39-80.77-552.28-213.36 12.86 9.39 466.27 242.11 803.31 6.57 216.86-151.43 212.92-316.75 212.92-316.75s6.72-66.14 32.72-113.46c25.7-47.46 57.24-147.49 24.53-196.26-32.72-48.78 51.26-86.9 93.6-26 42.63 60.75 8.32 165.31 8.32 165.31s26.73-2.92 52.71-6.13c33.29-4.24 96.52-15.92 123.54 3.06 4.1 2.78 7.89 6.87 10.67 11.97 5.25 8.62 7.89 19.87 4.68 31.4-4.39 15.92-14.31 24.68-14.31 24.68s27.01 7.6 27.01 38.11c-.14 37.09-25.7 47.9-25.7 47.9s21.61 9.5 18.84 35.2z"/><path class="fil3" d="M292.85 984.27c680.36 27.3 836.46-396.19 790.91-562.51-9.79-36.07-27.16-62.79-45.85-82.66-69.08-67.17-193.5-69.65-244.17-67.61-3.65.14-7.3.29-10.94.58-3.8.3-7.6.59-11.54.88-4.53.44-9.2.88-13.73 1.47-275.12 31.1-488.76 264.75-488.76 548.06 0 56.22 8.47 110.54 23.95 161.51-4.1-10.23-169.1-410.79 181.37-689.41 138.76-110.33 535.44-251.96 708.25 34.02 111.26 184.13-74.23 436.87-191.04 528.62-190.26 149.43-504.2 173.46-698.44 127.06z"/><path d="M2464.5 1643.9q-188.46 0-364.41-51.09c-117.31-34.06-211.54-78.34-282.68-132.83l124.88-277c68.12 49.95 149.1 90.06 242.95 120.34 93.85 30.27 187.69 45.41 281.54 45.41 104.44 0 181.64-15.51 231.6-46.54 49.94-31.04 74.92-72.28 74.92-123.74q0-56.76-44.28-94.23c-29.51-24.97-67.35-45.03-113.52-60.16-46.17-15.14-108.6-31.8-187.31-49.95-121.09-28.76-220.23-57.53-297.43-86.29s-143.43-74.92-198.68-138.5c-55.25-63.57-82.87-148.34-82.87-254.3 0-92.33 24.98-175.96 74.93-250.89 49.94-74.92 125.25-134.33 225.9-178.23C2250.7 22 2373.69.05 2519 .05c101.41 0 200.56 12.11 297.44 36.33s181.64 59.04 254.3 104.44l-113.52 279.27c-146.83-83.25-293.66-124.88-440.48-124.88q-154.395 0-228.18 49.95c-49.19 33.29-73.79 77.19-73.79 131.69 0 54.49 28.37 94.97 85.14 121.46 56.76 26.49 143.42 52.61 259.97 78.34 121.1 28.76 220.23 57.52 297.44 86.28 77.19 28.76 143.42 74.17 198.67 136.23s82.87 146.07 82.87 252.03c0 90.82-25.36 173.69-76.06 248.62q-76.065 112.38-228.18 178.23c-101.41 43.9-224.78 65.85-370.09 65.85zM3697.37 327.01h-508.59V27.3h1385v299.71h-508.59v1289.64h-367.82zm2304.56 994.47v295.17H4771.31V27.3h1201.1v295.17h-835.54v345.11h737.91v286.09h-737.91v367.81zm585.79 322.42c-107.47 0-206.24-20.06-296.3-60.17s-163.85-97.25-221.38-171.43l204.35-245.22c86.29 116.55 184.67 174.83 295.17 174.83 149.85 0 224.78-87.78 224.78-263.37V322.47H6235.8V27.3h924.09v1030.81c0 195.26-48.43 341.71-145.31 439.33-96.88 97.64-239.16 146.46-426.85 146.46zm1948.09-367.82h-737.92l-140.76 340.57h-376.91L7988.62 27.3h363.28l710.67 1589.35h-385.99l-140.76-340.57zm-115.8-279.27-252.02-608.49-252.02 608.49z" style="fill:#000131;fill-rule:nonzero"/><g style="clip-path:url(#id0)"><g id="_1854881202976"><path id="_1" class="fil5" d="M14997.82 863.6c-38.32 341.34-284.75 402.98-284.75 402.98s166.52 144.85 98.27 439.57c-64.94 283.05-562.8 342.99-889.18 394.62-154.86 24.97-278.05 94.92-319.68 119.89l-1.66 1.65c-10 6.65-15 10-15 10-108.23 176.53-224.77 354.65-348 536.14 0 0-3.31 1.7-3.31 3.35-1701.71 2351.07-4469.08 3881.31-7592.75 3881.31-2422.62 0-4633.85-920.8-6297.27-2432.68 146.69 107.09 5316.58 2760.66 9159.51 74.9 2472.66-1726.68 2427.67-3611.56 2427.67-3611.56s76.6-754.24 373.01-1293.73c293.06-541.13 652.71-1681.74 279.71-2237.83-372.97-556.14 584.46-990.76 1067.3-296.41 486.2 692.68 94.92 1884.84 94.92 1884.84s304.71-33.27 601.08-69.91c379.67-48.28 1100.63-181.53 1408.64 34.93 46.64 31.67 89.92 78.3 121.59 136.55 59.95 98.27 89.91 226.46 53.29 358-49.98 181.47-163.22 281.4-163.22 281.4s308.07 86.61 308.07 434.56c-1.66 422.94-293.06 546.18-293.06 546.18s246.43 108.23 214.8 401.24z"/><path class="fil6" d="M9720.78-655.28c171.6 47.94 338.83 117.82 494.74 210.67 785.64 467.88 1015.65 1353.94 563.69 2049.42-7.24 11.55-15.16 23.23-22.81 34.51-6.9 9.74-13.51 19.1-20.15 28.48-6.3 9.03-13.05 17.83-19.81 26.6-93.44 122.01-343.72 409.18-665.13 459.97-91.65 10.96-199.76 7.5-318.94-29.18-550.39-168.04-1419.43-1232.89-12.7-2780.62 0 0 .41.24 1.11.15"/></g></g><g style="clip-path:url(#id1)"><path class="fil5" d="M14997.82 863.6c-38.32 341.34-284.75 402.98-284.75 402.98s166.52 144.85 98.27 439.57c-64.94 283.05-562.8 342.99-889.18 394.62-154.86 24.97-278.05 94.92-319.68 119.89l-1.66 1.65c-10 6.65-15 10-15 10-108.23 176.53-224.77 354.65-348 536.14 0 0-3.31 1.7-3.31 3.35-1701.71 2351.07-4469.08 3881.31-7592.75 3881.31-2422.62 0-4633.85-920.8-6297.27-2432.68 146.69 107.09 5316.58 2760.66 9159.51 74.9 2472.66-1726.68 2427.67-3611.56 2427.67-3611.56s76.6-754.24 373.01-1293.73c293.06-541.13 652.71-1681.74 279.71-2237.83-372.97-556.14 584.46-990.76 1067.3-296.41 486.2 692.68 94.92 1884.84 94.92 1884.84s304.71-33.27 601.08-69.91c379.67-48.28 1100.63-181.53 1408.64 34.93 46.64 31.67 89.92 78.3 121.59 136.55 59.95 98.27 89.91 226.46 53.29 358-49.98 181.47-163.22 281.4-163.22 281.4s308.07 86.61 308.07 434.56c-1.66 422.94-293.06 546.18-293.06 546.18s246.43 108.23 214.8 401.24z"/><path class="fil6" d="M9720.78-655.28c171.6 47.94 338.83 117.82 494.74 210.67 785.64 467.88 1015.65 1353.94 563.69 2049.42-7.24 11.55-15.16 23.23-22.81 34.51-6.9 9.74-13.51 19.1-20.15 28.48-6.3 9.03-13.05 17.83-19.81 26.6-93.44 122.01-343.72 409.18-665.13 459.97-91.65 10.96-199.76 7.5-318.94-29.18-550.39-168.04-1419.43-1232.89-12.7-2780.62 0 0 .41.24 1.11.15"/></g><g style="clip-path:url(#id2)"><path class="fil5" d="M14997.82 863.6c-38.32 341.34-284.75 402.98-284.75 402.98s166.52 144.85 98.27 439.57c-64.94 283.05-562.8 342.99-889.18 394.62-154.86 24.97-278.05 94.92-319.68 119.89l-1.66 1.65c-10 6.65-15 10-15 10-108.23 176.53-224.77 354.65-348 536.14 0 0-3.31 1.7-3.31 3.35-1701.71 2351.07-4469.08 3881.31-7592.75 3881.31-2422.62 0-4633.85-920.8-6297.27-2432.68 146.69 107.09 5316.58 2760.66 9159.51 74.9 2472.66-1726.68 2427.67-3611.56 2427.67-3611.56s76.6-754.24 373.01-1293.73c293.06-541.13 652.71-1681.74 279.71-2237.83-372.97-556.14 584.46-990.76 1067.3-296.41 486.2 692.68 94.92 1884.84 94.92 1884.84s304.71-33.27 601.08-69.91c379.67-48.28 1100.63-181.53 1408.64 34.93 46.64 31.67 89.92 78.3 121.59 136.55 59.95 98.27 89.91 226.46 53.29 358-49.98 181.47-163.22 281.4-163.22 281.4s308.07 86.61 308.07 434.56c-1.66 422.94-293.06 546.18-293.06 546.18s246.43 108.23 214.8 401.24z"/><path class="fil6" d="M9720.78-655.28c171.6 47.94 338.83 117.82 494.74 210.67 785.64 467.88 1015.65 1353.94 563.69 2049.42-7.24 11.55-15.16 23.23-22.81 34.51-6.9 9.74-13.51 19.1-20.15 28.48-6.3 9.03-13.05 17.83-19.81 26.6-93.44 122.01-343.72 409.18-665.13 459.97-91.65 10.96-199.76 7.5-318.94-29.18-550.39-168.04-1419.43-1232.89-12.7-2780.62 0 0 .41.24 1.11.15"/></g><g style="clip-path:url(#id3)"><path class="fil5" d="M14997.82 863.6c-38.32 341.34-284.75 402.98-284.75 402.98s166.52 144.85 98.27 439.57c-64.94 283.05-562.8 342.99-889.18 394.62-154.86 24.97-278.05 94.92-319.68 119.89l-1.66 1.65c-10 6.65-15 10-15 10-108.23 176.53-224.77 354.65-348 536.14 0 0-3.31 1.7-3.31 3.35-1701.71 2351.07-4469.08 3881.31-7592.75 3881.31-2422.62 0-4633.85-920.8-6297.27-2432.68 146.69 107.09 5316.58 2760.66 9159.51 74.9 2472.66-1726.68 2427.67-3611.56 2427.67-3611.56s76.6-754.24 373.01-1293.73c293.06-541.13 652.71-1681.74 279.71-2237.83-372.97-556.14 584.46-990.76 1067.3-296.41 486.2 692.68 94.92 1884.84 94.92 1884.84s304.71-33.27 601.08-69.91c379.67-48.28 1100.63-181.53 1408.64 34.93 46.64 31.67 89.92 78.3 121.59 136.55 59.95 98.27 89.91 226.46 53.29 358-49.98 181.47-163.22 281.4-163.22 281.4s308.07 86.61 308.07 434.56c-1.66 422.94-293.06 546.18-293.06 546.18s246.43 108.23 214.8 401.24z"/><path class="fil6" d="M9720.78-655.28c171.6 47.94 338.83 117.82 494.74 210.67 785.64 467.88 1015.65 1353.94 563.69 2049.42-7.24 11.55-15.16 23.23-22.81 34.51-6.9 9.74-13.51 19.1-20.15 28.48-6.3 9.03-13.05 17.83-19.81 26.6-93.44 122.01-343.72 409.18-665.13 459.97-91.65 10.96-199.76 7.5-318.94-29.18-550.39-168.04-1419.43-1232.89-12.7-2780.62 0 0 .41.24 1.11.15"/></g><g style="clip-path:url(#id4)"><path class="fil5" d="M14997.82 863.6c-38.32 341.34-284.75 402.98-284.75 402.98s166.52 144.85 98.27 439.57c-64.94 283.05-562.8 342.99-889.18 394.62-154.86 24.97-278.05 94.92-319.68 119.89l-1.66 1.65c-10 6.65-15 10-15 10-108.23 176.53-224.77 354.65-348 536.14 0 0-3.31 1.7-3.31 3.35-1701.71 2351.07-4469.08 3881.31-7592.75 3881.31-2422.62 0-4633.85-920.8-6297.27-2432.68 146.69 107.09 5316.58 2760.66 9159.51 74.9 2472.66-1726.68 2427.67-3611.56 2427.67-3611.56s76.6-754.24 373.01-1293.73c293.06-541.13 652.71-1681.74 279.71-2237.83-372.97-556.14 584.46-990.76 1067.3-296.41 486.2 692.68 94.92 1884.84 94.92 1884.84s304.71-33.27 601.08-69.91c379.67-48.28 1100.63-181.53 1408.64 34.93 46.64 31.67 89.92 78.3 121.59 136.55 59.95 98.27 89.91 226.46 53.29 358-49.98 181.47-163.22 281.4-163.22 281.4s308.07 86.61 308.07 434.56c-1.66 422.94-293.06 546.18-293.06 546.18s246.43 108.23 214.8 401.24z"/><path class="fil6" d="M9720.78-655.28c171.6 47.94 338.83 117.82 494.74 210.67 785.64 467.88 1015.65 1353.94 563.69 2049.42-7.24 11.55-15.16 23.23-22.81 34.51-6.9 9.74-13.51 19.1-20.15 28.48-6.3 9.03-13.05 17.83-19.81 26.6-93.44 122.01-343.72 409.18-665.13 459.97-91.65 10.96-199.76 7.5-318.94-29.18-550.39-168.04-1419.43-1232.89-12.7-2780.62 0 0 .41.24 1.11.15"/></g><path d="M9998.01 1643.9c-164.99 0-313.71-35.57-446.15-106.72-132.45-71.14-236.13-169.15-311.07-294.02-74.92-124.88-112.38-265.28-112.38-421.18s37.46-296.3 112.38-421.18c74.93-124.88 178.62-222.89 311.07-294.02C9684.3 35.63 9833.02.06 9998.01.06s313.32 35.57 445.02 106.72c131.69 71.14 235.37 169.15 311.06 294.02 75.68 124.88 113.52 265.28 113.52 421.18s-37.84 296.3-113.52 421.18-179.37 222.89-311.06 294.02c-131.69 71.15-280.03 106.72-445.02 106.72m0-313.34c93.85 0 178.61-21.57 254.29-64.71s135.1-103.31 178.24-180.5c43.14-77.2 64.71-165 64.71-263.38 0-98.39-21.57-186.18-64.71-263.38-43.14-77.19-102.56-137.36-178.24-180.5s-160.44-64.71-254.29-64.71-178.62 21.57-254.3 64.71-135.09 103.31-178.23 180.5c-43.14 77.2-64.71 165-64.71 263.38 0 98.39 21.57 186.18 64.71 263.38 43.14 77.19 102.55 137.36 178.23 180.5s160.45 64.71 254.3 64.71" style="fill:#3364f4;fill-rule:nonzero"/><g style="clip-path:url(#id5)"><path id="_1_0" class="fil5" d="M14997.82 863.6c-38.32 341.34-284.75 402.98-284.75 402.98s166.52 144.85 98.27 439.57c-64.94 283.05-562.8 342.99-889.18 394.62-154.86 24.97-278.05 94.92-319.68 119.89l-1.66 1.65c-10 6.65-15 10-15 10-108.23 176.53-224.77 354.65-348 536.14 0 0-3.31 1.7-3.31 3.35-1701.71 2351.07-4469.08 3881.31-7592.75 3881.31-2422.62 0-4633.85-920.8-6297.27-2432.68 146.69 107.09 5316.58 2760.66 9159.51 74.9 2472.66-1726.68 2427.67-3611.56 2427.67-3611.56s76.6-754.24 373.01-1293.73c293.06-541.13 652.71-1681.74 279.71-2237.83-372.97-556.14 584.46-990.76 1067.3-296.41 486.2 692.68 94.92 1884.84 94.92 1884.84s304.71-33.27 601.08-69.91c379.67-48.28 1100.63-181.53 1408.64 34.93 46.64 31.67 89.92 78.3 121.59 136.55 59.95 98.27 89.91 226.46 53.29 358-49.98 181.47-163.22 281.4-163.22 281.4s308.07 86.61 308.07 434.56c-1.66 422.94-293.06 546.18-293.06 546.18s246.43 108.23 214.8 401.24z"/><path class="fil6" d="M9720.78-655.28c171.6 47.94 338.83 117.82 494.74 210.67 785.64 467.88 1015.65 1353.94 563.69 2049.42-7.24 11.55-15.16 23.23-22.81 34.51-6.9 9.74-13.51 19.1-20.15 28.48-6.3 9.03-13.05 17.83-19.81 26.6-93.44 122.01-343.72 409.18-665.13 459.97-91.65 10.96-199.76 7.5-318.94-29.18-550.39-168.04-1419.43-1232.89-12.7-2780.62 0 0 .41.24 1.11.15"/></g><path style="fill:#c6f950;fill-rule:nonzero" d="M12602.28 27.3v1589.35h-301.98l-792.41-964.97v964.97h-363.28V27.3h304.26l790.12 964.96V27.3z"/><g style="clip-path:url(#id6)"><path id="_1_1" class="fil5" d="M14997.82 863.6c-38.32 341.34-284.75 402.98-284.75 402.98s166.52 144.85 98.27 439.57c-64.94 283.05-562.8 342.99-889.18 394.62-154.86 24.97-278.05 94.92-319.68 119.89l-1.66 1.65c-10 6.65-15 10-15 10-108.23 176.53-224.77 354.65-348 536.14 0 0-3.31 1.7-3.31 3.35-1701.71 2351.07-4469.08 3881.31-7592.75 3881.31-2422.62 0-4633.85-920.8-6297.27-2432.68 146.69 107.09 5316.58 2760.66 9159.51 74.9 2472.66-1726.68 2427.67-3611.56 2427.67-3611.56s76.6-754.24 373.01-1293.73c293.06-541.13 652.71-1681.74 279.71-2237.83-372.97-556.14 584.46-990.76 1067.3-296.41 486.2 692.68 94.92 1884.84 94.92 1884.84s304.71-33.27 601.08-69.91c379.67-48.28 1100.63-181.53 1408.64 34.93 46.64 31.67 89.92 78.3 121.59 136.55 59.95 98.27 89.91 226.46 53.29 358-49.98 181.47-163.22 281.4-163.22 281.4s308.07 86.61 308.07 434.56c-1.66 422.94-293.06 546.18-293.06 546.18s246.43 108.23 214.8 401.24z"/><path class="fil6" d="M9720.78-655.28c171.6 47.94 338.83 117.82 494.74 210.67 785.64 467.88 1015.65 1353.94 563.69 2049.42-7.24 11.55-15.16 23.23-22.81 34.51-6.9 9.74-13.51 19.1-20.15 28.48-6.3 9.03-13.05 17.83-19.81 26.6-93.44 122.01-343.72 409.18-665.13 459.97-91.65 10.96-199.76 7.5-318.94-29.18-550.39-168.04-1419.43-1232.89-12.7-2780.62 0 0 .41.24 1.11.15"/></g><path class="fil0" d="M1320.32 1056.26c-88.05 187.8-278.77 317.9-499.86 317.9-134.63 0-257.74-48.19-353.54-128.06 129.39-8.17 350.18-50.67 602.22-220.21 129.83-87.32 230.29-211.16 284.18-346.38.72-1.8 1.42-3.59 2.12-5.39 107.24-276.5-57.85-585.16-346.65-652.6C937.65 4.9 862.98-2.46 786.12.79 363.05 18.58 19.13 361.97.85 785.01c-20.33 470.31 354.83 857.88 820.63 857.88 353.84 0 655.39-223.72 771.05-537.55l-272.21-49.06zM292.85 984.27c-15.62-51.11-24.09-105.44-24.09-161.8 0-283.3 213.64-516.95 488.76-548.06 4.53-.59 9.2-1.03 13.73-1.47 3.95-.29 7.75-.58 11.54-.88 3.71-.25 7.31-.46 10.9-.62 50.71-2.08 175.2.44 244.17 67.61 18.68 19.86 36.04 46.65 45.9 82.7 45.56 166.32-110.55 589.81-790.91 562.51z"/><path class="fil1" d="M1320.32 1056.26c-88.05 187.8-278.77 317.9-499.86 317.9-134.63 0-257.74-48.19-353.54-128.06 129.39-8.17 350.18-50.67 602.22-220.21 129.83-87.32 230.29-211.16 284.18-346.38.73-1.75 1.46-3.65 2.19-5.4 107.18-276.44-57.98-585.15-346.68-652.62C937.72 4.84 862.95-2.45 786.15.76 363.1 18.57 19.2 361.9.79 784.95c-20.31 470.36 354.86 857.94 820.68 857.94 353.84 0 655.39-223.72 771.05-537.55l-272.21-49.06zM292.71 983.98c-15.48-50.97-23.95-105.29-23.95-161.51 0-283.3 213.64-516.95 488.76-548.06 4.53-.59 9.2-1.03 13.73-1.47 3.95-.29 7.75-.58 11.54-.88 3.65-.29 7.3-.44 10.94-.58 50.67-2.04 175.09.44 244.17 67.61 18.69 19.87 36.07 46.59 45.85 82.66 45.56 166.32-110.55 589.81-790.91 562.51 0 0 0-.14-.14-.29z"/><path class="fil2" d="M1642.03 1135.12c-3.36 29.94-24.97 35.34-24.97 35.34s14.6 12.7 8.61 38.55c-5.69 24.83-49.35 30.08-77.98 34.61-13.58 2.19-24.38 8.32-28.03 10.52l-.15.14c-.88.59-1.32.88-1.32.88-9.49 15.49-19.71 31.11-30.52 47.02 0 0-.29.15-.29.3-149.24 206.2-391.95 340.4-665.9 340.4-212.47 0-406.39-80.77-552.28-213.36 12.86 9.39 466.27 242.11 803.31 6.57 216.86-151.43 212.92-316.75 212.92-316.75s6.72-66.14 32.72-113.46c25.7-47.46 57.24-147.49 24.53-196.26-32.72-48.78 51.26-86.9 93.6-26 42.63 60.75 8.32 165.31 8.32 165.31s26.73-2.92 52.71-6.13c33.29-4.24 96.52-15.92 123.54 3.06 4.1 2.78 7.89 6.87 10.67 11.97 5.25 8.62 7.89 19.87 4.68 31.4-4.39 15.92-14.31 24.68-14.31 24.68s27.01 7.6 27.01 38.11c-.14 37.09-25.7 47.9-25.7 47.9s21.61 9.5 18.84 35.2z"/><path class="fil3" d="M292.85 984.27c680.36 27.3 836.46-396.19 790.91-562.51-9.79-36.07-27.16-62.79-45.85-82.66-69.08-67.17-193.5-69.65-244.17-67.61-3.65.14-7.3.29-10.94.58-3.8.3-7.6.59-11.54.88-4.53.44-9.2.88-13.73 1.47-275.12 31.1-488.76 264.75-488.76 548.06 0 56.22 8.47 110.54 23.95 161.51-4.1-10.23-169.1-410.79 181.37-689.41 138.76-110.33 535.44-251.96 708.25 34.02 111.26 184.13-74.23 436.87-191.04 528.62-190.26 149.43-504.2 173.46-698.44 127.06z"/></g></svg>